Coordinates
version=1
nRows=12
nColumns=33
inDegrees=yes

Units are S.I. units (second, meters, Newtons, ...)
Angles are in degrees.

endheader
time	ground_thorax_rot_x	ground_thorax_rot_y	ground_thorax_rot_z	ground_thorax_tx	ground_thorax_ty	ground_thorax_tz	clav_prot_r	clav_elev_r	scapula_abduction_r	scapula_elevation_r	scapula_upward_rot_r	scapula_winging_r	shoulder_elv_r	plane_of_elev_r	axial_rot_r	elbow_flexion_r	pro_sup_r	wrist_flex_r	wrist_dev_r	clav_prot_l	clav_elev_l	scapula_abduction_l	scapula_elevation_l	scapula_upward_rot_l	scapula_winging_l	shoulder_elv_l	plane_of_elev_l	axial_rot_l	elbow_flexion_l	pro_sup_l	wrist_flex_l	wrist_dev_l
      1.54000000	      1.02006595	      0.25320331	      0.37951752	     -0.15671681	      0.98995571	      0.00397397	     -8.76808532	      3.34644910	    -10.83149450	      7.27927411	      7.44460241	     -1.54135169	     45.28576757	    -47.33372163	     53.94770866	     73.86821907	     -8.55264727	     34.23713826	    -13.73521818	     -6.76618027	      2.34609688	      8.01403063	     -7.35801370	      1.95948618	      0.11513548	     44.70129532	    -52.02863454	    -30.97889573	     78.82923055	     17.69458890	    -14.60607420	    -24.99999983
      1.55000000	      0.60632312	      0.71510743	      0.36953218	     -0.15683595	      0.99004371	      0.00396744	     -9.14898841	      2.65901902	    -11.86635727	      7.07352142	      6.33441559	     -1.06004035	     45.36164035	    -47.15088051	     52.59468566	     73.60279311	     -5.22706241	     34.60833677	    -14.62162644	     -6.48571202	      2.64243748	      6.92617484	     -7.09961895	      3.30013818	      0.65998705	     43.61189458	    -52.77149025	    -31.41428485	     78.42950414	     14.77248779	    -16.08014373	    -24.99999983
      1.56000000	      0.68009434	      0.72856105	      0.23788121	     -0.15683582	      0.99007964	      0.00383981	     -9.39500381	      2.39620351	    -12.23967641	      6.84717280	      6.27699067	     -0.97677072	     45.37045708	    -47.16593986	     52.13675895	     73.66759128	     -5.23209611	     34.52072537	    -14.77595457	     -6.56965758	      2.41802837	      7.12461238	     -6.98869242	      3.05669456	      0.54539282	     43.30138578	    -52.37866423	    -30.94074847	     78.19245314	     14.72107547	    -16.52024437	    -24.99999983
      1.57000000	      0.66284678	      0.74477072	      0.13176385	     -0.15693338	      0.99009329	      0.00370866	     -9.57049438	      2.10766116	    -12.59330710	      6.68443557	      6.00247715	     -0.83565924	     45.36032681	    -47.07258734	     51.40536568	     73.71503532	     -5.12202338	     34.51903501	    -15.02597164	     -6.55060143	      2.19615956	      7.17280064	     -6.91282043	      2.73432026	      0.44046033	     43.09216101	    -52.07660191	    -30.41075775	     78.09939549	     14.63915847	    -17.41632450	    -24.99999983
      1.58000000	      0.62270255	      0.69342080	      0.39122961	     -0.15690978	      0.98988282	      0.00364944	     -9.72553104	      2.04386406	    -12.88505289	      6.64671399	      5.93783369	     -0.77627144	     45.33756239	    -47.16822447	     51.10070161	     73.80686839	     -5.08462536	     34.55851459	    -15.09752496	     -6.63263196	      2.12756782	      7.35487588	     -6.89178168	      2.62566533	      0.37329533	     42.96489760	    -52.12526434	    -30.23368588	     78.08599713	     14.61030905	    -17.65023027	    -24.99999983
      1.59000000	      0.67831695	      0.72759962	      0.00409256	     -0.15712484	      0.99008094	      0.00351681	     -9.84762659	      1.66724931	    -13.20546999	      6.47711935	      5.47804684	     -0.58289302	     45.44158882	    -46.87632332	     49.84904204	     73.89503313	     -4.62146434	     34.80432607	    -15.38047007	     -6.54441565	      1.70484815	      7.26721829	     -6.68336554	      2.17428401	      0.24371856	     42.77782993	    -51.60084907	    -29.58677979	     77.91224697	     14.50533358	    -19.04519464	    -24.99999983
      1.60000000	      0.59188324	      0.66473018	      0.32973462	     -0.15704976	      0.98983376	      0.00339561	     -9.97061753	      1.64157137	    -13.47034580	      6.48877627	      5.37939572	     -0.52318710	     45.45590469	    -46.97002782	     49.54835357	     73.95995263	     -4.48219105	     34.87031667	    -15.42700427	     -6.61240190	      1.68200465	      7.44466681	     -6.70958320	      2.05307887	      0.17924532	     42.70130331	    -51.71441489	    -29.38318986	     77.94073055	     14.47664279	    -19.38945894	    -24.99999983
      1.61000000	      0.60874483	      0.64305173	     -0.07889359	     -0.15741816	      0.98999677	      0.00324212	     -9.93122773	      1.23371928	    -13.66715396	      6.43274723	      4.57179485	     -0.25028512	     45.75121008	    -46.52572353	     47.99205523	     74.01192091	     -3.28444444	     35.28812257	    -15.51684138	     -6.37085809	      1.22904176	      7.21755162	     -6.60188943	      1.28389341	      0.00208526	     42.65448840	    -51.17976232	    -28.50985184	     77.84261067	     14.42956004	    -21.70759888	    -24.99999983
      1.62000000	      0.51847865	      0.58743112	      0.28451374	     -0.15734296	      0.98968346	      0.00316303	    -10.02456401	      1.27680685	    -13.89874986	      6.50515055	      4.48393347	     -0.20069767	     45.78590409	    -46.67061169	     47.78810731	     74.11149745	     -3.11091239	     35.32417876	    -15.50314528	     -6.42357425	      1.25910326	      7.37074512	     -6.66790824	      1.18771639	     -0.04588820	     42.62945267	    -51.34074167	    -28.38558238	     77.85033953	     14.43124610	    -22.02465615	    -24.99999983
      1.63000000	      0.50690160	      0.60628426	      0.50983801	     -0.15786161	      0.98966152	      0.00303180	     -9.77167273	      1.09992117	    -14.00346063	      6.84443069	      3.24911328	      0.14685658	     46.46083783	    -46.47357270	     46.24673164	     74.27204078	     -0.82329602	     35.39064755	    -14.88884934	     -5.93474946	      1.03099867	      6.94250869	     -6.93568752	      0.01667535	     -0.24433842	     42.88661817	    -51.08898907	    -27.78598002	     77.73415836	     14.74904542	    -25.57037932	    -24.99999983
      1.64000000	      0.43382728	      0.49984246	      0.55782914	     -0.15783399	      0.98924302	      0.00290916	     -9.89340645	      1.07601142	    -14.18762400	      6.79633530	      3.30523805	      0.15929140	     46.45716743	    -46.48846393	     46.07051762	     74.45079652	     -0.81700322	     35.39648983	    -14.89660979	     -6.00645184	      1.04031962	      7.08647050	     -6.95113830	     -0.00161288	     -0.27627769	     42.84666879	    -51.14187674	    -27.66792811	     77.80283920	     14.73592600	    -25.63713685	    -24.99999983
      1.65000000	      0.35999198	      0.45921998	      0.57617899	     -0.15768807	      0.98896558	      0.00277272	    -10.03463300	      1.03129018	    -14.42230678	      6.74760766	      3.31043562	      0.18952206	     46.45145919	    -46.54751515	     45.84744324	     74.61753568	     -0.79218162	     35.38465083	    -14.88442664	     -6.12661975	      1.00308987	      7.30793312	     -6.92449126	     -0.02686792	     -0.33159113	     42.82217581	    -51.16125610	    -27.40481961	     77.93131705	     14.72522317	    -25.75179529	    -24.99999983
